<svg fill="none" height="120" viewBox="0 0 120 120" width="120" xmlns="http://www.w3.org/2000/svg"><path d="m0 60c0-49.41 10.59-60 60-60s60 10.59 60 60-10.59 60-60 60-60-10.59-60-60z" fill="#d1e3d9"/><path clip-rule="evenodd" d="m50.2497 26.567c-.5765.2044-.453.1036-4.1196 3.3615-1.5852 1.4086-2.953 2.5773-3.0396 2.5972-.0866.0198-1.1098-.8008-2.2739-1.8235-1.1641-1.0229-2.349-2.0293-2.6331-2.2364-1.2124-.8845-2.5622-.7882-3.6507.2601-.4098.3948-.6862.7978-.7797 1.1369-.2021.7338-.2052 59.5423-.0032 60.2649.2226.7952 1.081 1.6249 1.937 1.8719 1.4252.4114 1.9107.1646 4.9298-2.506 1.2725-1.1256 2.3833-2.0301 2.4686-2.01.0852.02 1.5903 1.3061 3.3447 2.858 1.7544 1.552 3.3431 2.9014 3.5301 2.9989.6186.3217 1.6597.3475 2.3202.0574.3708-.1629 1.8028-1.3323 3.7989-3.1025 1.762-1.5627 3.2587-2.8411 3.3261-2.8411.0672 0 1.5635 1.2787 3.325 2.8418 1.9928 1.768 3.427 2.9401 3.7965 3.1024.6742.2962 1.7008.262 2.3527-.0783.2084-.1087 1.8074-1.4711 3.5536-3.0274 1.7462-1.5565 3.2362-2.8319 3.3109-2.8343.0747-.0022 1.0867.8312 2.2489 1.8521 1.1621 1.021 2.3453 2.026 2.6293 2.2332 1.2124.8844 2.5623.7881 3.6507-.2602.4099-.3948.6862-.7978.7797-1.1369.1028-.3731.1449-9.0905.1454-30.0852.0009-33.2069.0872-30.4765-.9924-31.4199-1.0516-.9189-2.2559-1.0248-3.395-.2985-.3149.2007-1.5539 1.2322-2.7533 2.2922-1.1994 1.0601-2.2507 1.9109-2.3363 1.8908-.0855-.0201-1.5909-1.3063-3.3453-2.8582-1.7544-1.552-3.343-2.9014-3.5301-2.9988-.618-.3214-1.6596-.3475-2.3188-.0581-.3695.1624-1.8037 1.3344-3.7965 3.1025-1.7615 1.563-3.2589 2.8417-3.3274 2.8417-.0686 0-1.5651-1.278-3.3256-2.84s-3.4438-2.9496-3.7408-3.0836c-.631-.2844-1.3995-.3082-2.0868-.0646zm10.5178 22.8208c.4455.2357.6108.5238.6154 1.0723.0033.3845-.0873.5934-.3853.8894l-.3895.3866-8.4852-.0355-8.4852-.0358-.3192-.3685c-.4777-.5515-.4405-1.2798.0879-1.7212l.4069-.34h8.3326c6.0813 0 8.4108.0412 8.6216.1527zm14.2168 9.4448c1.0937.3785 1.0937 1.9658 0 2.3443-.5722.1981-30.5907.1981-31.1628 0-1.0762-.3724-1.0951-1.9246-.0285-2.34.4801-.187 30.6513-.1912 31.1913-.0043zm.5029 9.8806c.4777.5515.4405 1.2798-.0878 1.7212l-.4069.34h-15.5896-15.5896l-.4069-.34c-.3191-.2665-.4071-.4447-.4071-.8244 0-.5456.2864-1.0311.7087-1.2016.1567-.0633 7.2522-.1031 15.8717-.0891l15.5882.0254z" fill="#219653" fill-rule="evenodd"/></svg>