<svg fill="none" height="161" viewBox="0 0 161 161" width="161" xmlns="http://www.w3.org/2000/svg"><path clip-rule="evenodd" d="m62.9468 31.3854c-1.7087.554-2.9239 1.3537-4.2952 2.8263-2.0736 2.2271-2.7347 4.431-2.7371 9.1251l-.0014 2.6422h-13.3699c-12.7655 0-13.4302.0211-14.703.4692-2.8337.9977-5.1025 3.1511-6.2328 5.9156-.4882 1.1943-.5135 1.6382-.5878 10.2901-.0551 6.4165.004 9.4171.2035 10.3337.7946 3.653 3.7035 6.6876 7.3406 7.6576.9789.2611 5.1025.3227 21.7811.3248l20.5736.0028v-1.2992c0-.7147.147-1.652.3268-2.083.656-1.5728.5113-1.5498 9.7548-1.5498s9.0988-.023 9.7548 1.5498c.1798.431.3268 1.3683.3268 2.083v1.2992l20.5734-.0028c16.679-.0021 20.802-.0637 21.781-.3248 3.637-.97 6.546-4.0046 7.341-7.6576.199-.9166.259-3.9172.203-10.3337-.074-8.6519-.099-9.0958-.587-10.2901-.763-1.8657-2.276-3.7185-3.89-4.7636-2.551-1.651-2.235-1.6212-17.095-1.6212h-13.321l-.004-2.7596c-.005-3.2218-.422-5.4738-1.321-7.1279-.903-1.6626-3.256-3.7979-4.9311-4.4748l-1.3639-.5512-17.1153-.0491c-15.8521-.0455-17.2106-.0183-18.4049.369zm33.0584 12.0102v2.5834h-15.0052-15.0052v-2.5834-2.5835h15.0052 15.0052zm-73.5456 40.2642c-1.5662.6936-1.501-.2557-1.4285 20.7412.0649 18.869.0677 18.97.5758 20.212 1.1317 2.765 3.3999 4.918 6.2333 5.915 1.3174.464 1.9476.47 53.1115.47 57.5263 0 52.8353.136 55.5513-1.622 1.614-1.045 3.126-2.897 3.89-4.763.508-1.242.511-1.343.576-20.212.073-21.1148.149-20.0641-1.505-20.7562-.963-.403-1.396-.3011-3.132.7379-2.649 1.5846-1.64 1.5221-24.544 1.5221h-20.7064v3.8827c0 4.3618-.2072 5.2427-1.3767 5.8484-1.0607.5496-16.3491.5496-17.4098 0-1.1695-.6057-1.3767-1.4866-1.3767-5.8484v-3.8827h-20.7068c-22.9189 0-21.9086.063-24.5434-1.5305-1.6283-.985-2.2733-1.1285-3.2086-.7145z" fill="#219653" fill-rule="evenodd"/></svg>