<svg fill="none" height="200" viewBox="0 0 200 200" width="200" xmlns="http://www.w3.org/2000/svg"><path clip-rule="evenodd" d="m16 89.8821v60.8819h51.6797 51.6793v10.618 10.618l8.942-4.394c4.918-2.417 9.132-4.397 9.366-4.399.233-.003 4.479 1.973 9.433 4.389l9.009 4.394v-10.613-10.613h13.946 13.945v-60.8819-60.8821h-84-84zm158.156 0v51.0629h-9.023-9.024v-3.611-3.61l1.765-2.075c4.465-5.251 6.775-12.075 6.327-18.691-.849-12.52-9.803-22.4176-22.235-24.5767-14.338-2.4902-28.229 7.6057-30.516 22.1777-.45 2.866-.192 7.813.551 10.582 1.062 3.957 4.093 9.362 6.503 11.596.825.765.855.926.855 4.5v3.708h-46.7574-46.7578v-51.0629-51.0624h74.1562 74.156zm-123.7029-36.3329v4.9099h49.5469 49.547v-4.9099-4.9098h-49.547-49.5469zm-14.7656 19.6394v4.9099h64.3125 64.312v-4.9099-4.9098h-64.312-64.3125zm105.5775 25.0422c8.087 1.9022 13.805 9.5932 13.074 17.5852-1.285 14.054-18.265 20.348-28.246 10.47-6.706-6.636-6.778-16.649-.167-23.349 4.23-4.2862 9.825-6.003 15.339-4.7062zm-8.58 42.2252c3.77.796 9.226.514 12.97-.671.584-.185.611.161.611 8.011 0 5.335-.117 8.205-.333 8.205-.184 0-2.095-.88-4.246-1.956l-3.913-1.957-4.039 1.955c-2.222 1.076-4.15 1.956-4.286 1.957-.135.001-.246-3.691-.246-8.204 0-7.85.026-8.196.61-8.011.336.106 1.628.408 2.872.671z" fill="#293737" fill-rule="evenodd"/><g fill="#219653"><path d="m35.6875 111.485v-4.909-4.91h23.9531 23.9532v4.91 4.909h-23.9532z"/><path d="m35.6875 131.125v-4.91-4.91h23.9531 23.9532v4.91 4.91h-23.9532z"/></g></svg>