<svg fill="none" height="120" viewBox="0 0 120 120" width="120" xmlns="http://www.w3.org/2000/svg"><path d="m0 60c0-49.41 10.59-60 60-60s60 10.59 60 60-10.59 60-60 60-60-10.59-60-60z" fill="#f4d6e6"/><path clip-rule="evenodd" d="m58.5522 26.182c-1.3626.3623-1.9673.7927-4.6072 3.2791-1.7122 1.6128-2.7533 2.4941-3.0949 2.6203-.4697.1735-.7858.1525-3.5923-.2392-1.6926-.236-3.5316-.4295-4.0869-.4299-1.975-.0011-3.7425.9389-4.8533 2.5812-.6797 1.005-.8129 1.4719-1.4757 5.1695-.3024 1.6869-.6405 3.2405-.7514 3.4523-.2421.4622-.3604.5353-3.6471 2.254-3.0652 1.6029-3.7002 2.0493-4.4224 3.1098-.7118 1.0454-1.0071 2.0061-1.0202 3.3195-.0136 1.3647.1222 1.7497 1.8608 5.275 1.0949 2.2205 1.4233 3.011 1.4233 3.4265 0 .4154-.3284 1.2059-1.4233 3.4264-1.7386 3.5253-1.8744 3.9103-1.8608 5.2751.0131 1.3133.3084 2.2741 1.0202 3.3195.7222 1.0604 1.3572 1.5068 4.4224 3.1097 3.2867 1.7187 3.405 1.7918 3.6471 2.2541.1109.2117.449 1.7653.7514 3.4522.3023 1.6869.6364 3.3553.7425 3.7075.1983.6594.8176 1.7272 1.3266 2.2873.4817.5305 1.8136 1.3179 2.6203 1.5494 1.112.3191 2.1494.2803 5.6592-.2118 2.8713-.4027 3.1894-.4245 3.6596-.2508.342.1264 1.3873 1.0119 3.1132 2.6374 2.0784 1.9577 2.7666 2.525 3.4391 2.8358 1.1696.5403 2.3614.7245 3.4719.5367 1.6886-.2854 2.3132-.694 5.157-3.3725 1.7259-1.6255 2.7712-2.511 3.1132-2.6374.4697-.1735.7858-.1525 3.5923.2392 1.6926.236 3.5317.4295 4.0869.4299 1.975.0011 3.7425-.9389 4.8533-2.5812.6797-1.005.8129-1.4719 1.4757-5.1695.3024-1.6869.6405-3.2405.7514-3.4522.2421-.4623.3604-.5354 3.6471-2.2541 3.0652-1.6029 3.7002-2.0493 4.4224-3.1097.7125-1.0464 1.0149-2.0287 1.0258-3.3312.0112-1.3475-.126-1.7341-1.8664-5.2634-1.0949-2.2205-1.4233-3.011-1.4233-3.4264 0-.4155.3284-1.206 1.4233-3.4265 1.7404-3.5292 1.8776-3.9159 1.8664-5.2634-.0109-1.3025-.3133-2.2848-1.0258-3.3311-.7222-1.0605-1.3572-1.5069-4.4224-3.1098-3.2867-1.7187-3.405-1.7918-3.6471-2.254-.1109-.2118-.449-1.7654-.7514-3.4523-.6628-3.6976-.796-4.1645-1.4757-5.1695-1.1108-1.6423-2.8783-2.5823-4.8533-2.5812-.5552.0004-2.3943.1939-4.0869.4299-2.8065.3917-3.1226.4127-3.5923.2392-.3416-.1262-1.3827-1.0075-3.0949-2.6203-1.598-1.5051-2.8302-2.5553-3.237-2.7589-1.4-.7004-2.8959-.883-4.2604-.5202zm-4.9998 16.3332c3.2938.6893 5.7611 3.6879 5.7698 7.0123.0085 3.1955-2.3092 6.1374-5.477 6.9521-1.6311.4195-3.5664.1923-5.1695-.6066-1.0726-.5346-2.5331-1.9765-3.0744-3.0352-1.4424-2.8211-.929-6.114 1.2959-8.3106 1.8201-1.797 4.2182-2.522 6.6552-2.012zm20.5467 2.865c.8709.5241 1.2287 1.6687.7814 2.4992-.234.4344-26.8075 26.6508-27.2249 26.859-.4566.2278-1.2767.1726-1.7601-.1184-.8709-.5242-1.2287-1.6688-.7814-2.4993.2177-.4043 26.7811-26.629 27.2001-26.8534.4313-.231 1.3055-.1757 1.7849.1129zm-23.4628 1.2455c-1.174.5397-1.8352 1.5675-1.8474 2.8716-.0174 1.847 1.3925 3.2498 3.2663 3.2498 1.873 0 3.2576-1.3881 3.2576-3.2658 0-2.3454-2.4853-3.863-4.6765-2.8556zm19.093 16.8948c1.2686.3263 2.3369.9435 3.3299 1.924 1.429 1.4108 2.1427 3.0927 2.1472 5.0601.0098 4.2721-4.0385 7.7113-8.3103 7.0601-4.1076-.6263-6.9125-4.5739-6.0781-8.554.5297-2.5266 2.7207-4.8047 5.2738-5.4836.9349-.2486 2.6842-.2518 3.6375-.0066zm-2.5984 3.7727c-2.4546.7934-3.263 3.6024-1.5684 5.4498.8391.9147 2.5577 1.2006 3.7958.6314 2.4736-1.1372 2.4812-4.5803.0128-5.8236-.5833-.2938-1.723-.4248-2.2402-.2576z" fill="#ed017f" fill-rule="evenodd"/></svg>