<svg fill="none" height="200" viewBox="0 0 200 200" width="200" xmlns="http://www.w3.org/2000/svg"><path clip-rule="evenodd" d="m147.524 31.4342c-1.918 3.34-5.785 7.2106-9.087 9.0958-1.33.7593-2.419 1.4434-2.419 1.5198s1.089.7605 2.419 1.5198c3.302 1.8852 7.169 5.7558 9.087 9.0958.764 1.3303 1.452 2.4192 1.528 2.4192.077 0 .764-1.0889 1.528-2.4192 1.91-3.3266 5.773-7.1873 9.093-9.0883 1.334-.7635 2.425-1.4509 2.425-1.5273s-1.091-.7638-2.425-1.5273c-3.32-1.901-7.183-5.7617-9.093-9.0883-.764-1.3303-1.451-2.4192-1.528-2.4192-.076 0-.764 1.0889-1.528 2.4192zm-26.949 24.3525c-.459.2084-21.1732 20.7394-46.0327 45.6253-40.3892 40.431-45.2187 45.357-45.3862 46.288-.4551 2.531-.6238 2.313 10.1029 13.04 10.7266 10.727 10.5086 10.559 13.0396 10.104.9315-.167 5.8569-5.002 46.5189-45.667 40.6625-40.664 45.4965-45.5896 45.6645-46.5212.452-2.5184.589-2.34-9.827-12.81-5.381-5.408-10.03-9.8554-10.529-10.0719-1.117-.4845-2.467-.4795-3.551.0128zm7.641 16.1322 5.691 5.6969-7.985 7.9864-7.986 7.9863-5.764-5.7642-5.764-5.7638 7.915-7.9191c4.353-4.3555 7.98-7.9192 8.059-7.9192.078 0 2.704 2.5637 5.834 5.6967zm-22.226 22.2278 5.692 5.6972-30.2126 30.2141-30.2121 30.213-5.7644-5.764-5.7647-5.765 30.1433-30.146c16.5785-16.58 30.2065-30.1462 30.2845-30.1462s2.704 2.5636 5.834 5.6969zm55.447-1.4595c-1.044 1.8743-4.329 5.1587-6.203 6.2028-.802.4468-1.458.875-1.458.9514s.656.5046 1.458.9516c1.874 1.044 5.159 4.328 6.203 6.203.446.802.874 1.458.951 1.458.076 0 .504-.656.951-1.458 1.044-1.875 4.328-5.159 6.203-6.203.802-.447 1.458-.8752 1.458-.9516s-.656-.5046-1.458-.9514c-1.875-1.0441-5.159-4.3285-6.203-6.2028-.447-.8022-.875-1.4584-.951-1.4584-.077 0-.505.6562-.951 1.4584z" fill="#293737" fill-rule="evenodd"/><path d="m75.2662 45.5704c6.2297-3.2553 11.2329-8.1509 14.6085-14.2949.6876-1.2514 1.3127-2.2755 1.3891-2.2755s.7015 1.0241 1.3892 2.2755c3.3747 6.1426 7.901 10.5931 14.374 14.1331.953.5213 1.733 1.0103 1.733 1.0867s-.78.5654-1.733 1.0866c-6.473 3.5401-10.9993 7.9906-14.374 14.1331-.6877 1.2515-1.3128 2.2756-1.3892 2.2756s-.7015-1.0211-1.3891-2.2692c-3.347-6.075-7.7928-10.5258-13.8214-13.8369-1.2519-.6877-2.2796-1.3128-2.2837-1.3892-.0042-.0764.6692-.4926 1.4966-.9249z" fill="#219653"/></svg>