<svg fill="none" height="50" viewBox="0 0 50 50" width="50" xmlns="http://www.w3.org/2000/svg"><g clip-rule="evenodd" fill-rule="evenodd"><path d="m42.5 5h2.5c1.25 0 2.5 1.25 2.5 2.5v12c-3.5-2.75-7.75-4.5-12.5-4.5-11 0-20 9-20 20 0 3.5 1 7 2.75 10h-15.25c-1.25 0-2.5-1-2.5-2.5v-35c0-1.5 1.25-2.5 2.5-2.5h5v-2.5c0-1.5 1-2.5 2.5-2.5s2.5 1 2.5 2.5v2.5h25v-2.5c0-1.5 1-2.5 2.5-2.5s2.5 1 2.5 2.5zm-34.66663 5.8333c-1.10457 0-2 .8954-2 2v4.3333c0 1.1046.89544 2 2 2h4.33333c1.1046 0 2-.8954 2-2v-4.3333c0-1.1046-.8954-2-2-2z" fill="#c0d271"/><path d="m35 50c8.2843 0 15-6.7157 15-15s-6.7157-15-15-15-15 6.7157-15 15 6.7157 15 15 15zm7.7126-15.1062c-1.1125-.5547-2.1417-1.2628-3.0574-2.1034-.077-.0705-.1071-.1787-.0776-.2788.4537-1.7166.7907-3.462 1.0086-5.2241.0345-.2931-.1236-.3793-.2902-.1782-1.67 1.9972-3.9626 1.768-6.255 1.5389-2.1792-.2179-4.3582-.4357-6.0017 1.2592-.1526-.075-.3279-.0915-.4925-.0455l-.0396.0111c-.369.103-.5845.4857-.4814.8547l3.5082 12.5542c.0824.2952.3886.4676.6837.3851l.3069-.0857c.2951-.0825.4675-.3887.385-.6838l-1.3314-4.7645c1.6209-1.493 3.7171-1.2834 5.8133-1.0739 2.2922.2291 4.5845.4582 6.255-1.5388.1667-.2012.1983-.569.0661-.6265z" fill="#54ab68"/></g></svg>