<svg fill="none" height="94" viewBox="0 0 87 94" width="87" xmlns="http://www.w3.org/2000/svg"><g clip-rule="evenodd" fill-rule="evenodd"><path d="m64.7952 90.2384c-.1008-1.2406-.3564-3.532-.6314-6.0019-.4906-4.4037-1.045-9.3753-.9123-10.2455l.1022-.6688.656.1541c1.0005.2351 4.4831 2.4218 6.42 3.6376l1.0223.6365 1.8708 1.152c1.5841.9794 3.1717 1.9609 4.7876 2.8611 1.4385-1.0538 3.2568-2.9117 4.8654-4.8654 1.5615-1.8957 2.9151-3.867 3.5168-5.2594-1.4367-1.1898-6.9243-4.4167-10.7191-6.6483-1.4638-.8606-2.6792-1.5756-3.3301-1.9792-3.0701-1.9049-6.3773-2.5475-9.4787-2.1846-2.1764.2543-4.2543 1.0059-6.0794 2.1637-1.8274 1.1594-3.4018 2.724-4.5673 4.6031-1.6747 2.6995-2.517 6.0592-2.0776 9.8164.0759.648.2033 1.9887.3569 3.6199.4077 4.3117 1.0137 10.7145 1.4785 12.5151 1.4691.04 3.828-.3605 6.2165-.9746 2.4737-.6353 4.9569-1.4964 6.5029-2.3318z" fill="#c0d271"/><path d="m45.5353 79.0141c.045-2.8702-.1574-5.5091-1.0711-7.8866-.9044-2.3519-2.5225-4.4772-5.3205-6.3627-2.0279-1.3664-4.5986-2.2935-7.3168-2.4789-2.4183-.1655-4.9523.2548-7.3219 1.4707-1.2957.6653-3.8259 2.3915-6.54 4.3489-3.4591 2.4953-7.1999 5.3558-9.08817 6.8932.83708 1.5995 2.43357 3.3982 4.16967 5.074 1.768 1.7064 3.6697 3.2741 5.0833 4.3909l14.2504-10.2872.0326 1.1744c.0334 1.1962-.0489 3.4112-.1399 5.8706-.15 4.0419-.3254 8.7572-.0571 10.4879l1.3145.3707c3.3532.9571 8.0497 2.2976 11.5271 1.8203z" fill="#9c9"/><path d="m22.272 59.5946c2.0547-1.6473 3.4536-3.7399 4.2748-5.9877.9151-2.5045 1.1169-5.2034.7144-7.6982-1.2732-7.8836-7.1448-10.3758-13.703-13.1588-1.1516-.4889-2.3244-.9869-3.5402-1.5432l-.74206-.3408c-1.7136-.7929-4.44019-2.0537-5.81784-2.4661-.79331 1.3004-1.70218 3.8431-2.39204 6.4007-.687097 2.547-1.1487949 5.0698-1.0536531 6.3439l15.9735931 7.1076-15.431457 8.5947c.480377 2.0859 1.019227 4.238 1.758217 6.3505.72585 2.0749 1.64751 4.1174 2.90045 6.0297 1.39443-.773 3.09591-1.6558 4.90619-2.5946 4.4457-2.3057 9.5571-4.9567 12.1526-7.0377z" fill="#7cb8a6"/><path d="m27.9054 33.15c2.6275.1522 5.4425-.5006 8.3995-2.3768 7.8544-4.9851 6.9713-12.1923 6.0837-19.4335-.1194-.9768-.2396-1.95577-.3491-3.04505-.0495-.48955-.0931-.99086-.1413-1.55826-.178-2.07858-.4332-5.03784-.7807-6.424144-1.378-.077843-4.1996.385238-6.9345 1.120254-2.3706.63728-4.6412 1.47227-5.7891 2.32146.0526 1.54043.4058 4.13227.7693 6.79764.5286 3.8755 1.0782 7.9061.7711 9.3829l-.1773.8524-14.6681-8.7277c-1.4098 1.0605-3.3557 3.0824-5.0506 5.1499-1.55793 1.9002-2.88784 3.8155-3.36337 5.0129 1.60322 1.205 8.04747 5.0099 11.69947 7.1659l2.1857 1.2954c2.2428 1.3504 4.7104 2.3145 7.3453 2.4665z" fill="#54ab68"/><path d="m48.6299 22.5997c.8597 2.4192 2.47 4.6403 5.4177 6.5907 9.4675 6.2657 17.6767-.2927 26.1415-7.0561 1.3585-1.0834 2.723-2.1728 4.0856-3.2076-2.5093-3.9273-5.6947-6.5285-8.7958-9.05944l-.4153-.33801-14.1296 10.20765-.1168-1.0642c-.2162-1.9732-.0797-5.4739.0509-8.82101.1283-3.28793.2506-6.42536.0332-7.65563-1.821-.68018-4.4035-1.36399-6.9935-1.783825-2.0483-.3317858-4.0942-.498717-5.7593-.3672483l-.4662 14.5935133c-.0431 2.8237.0763 5.5098.9476 7.9612z" fill="#41747a"/></g></svg>