<svg fill="none" height="161" viewBox="0 0 161 161" width="161" xmlns="http://www.w3.org/2000/svg"><path clip-rule="evenodd" d="m76.9922 28.1435c-4.9183.8932-8.9381 3.0923-12.4117 6.7906-7.9142 8.4264-7.6612 21.5792.5756 29.931 7.3158 7.4183 18.9254 8.4897 27.6847 2.5555 1.8219-1.2342 4.2463-3.6765 5.5418-5.5826 5.7274-8.4256 4.9134-19.5829-1.9631-26.9039-4.2779-4.5546-9.0721-6.7383-15.1856-6.9165-1.6818-.0489-3.5906.0076-4.2417.1259zm-38.7583 20.539c-4.7762 1.2501-8.9986 4.9024-10.8887 9.4187-1.7921 4.2813-1.56 9.7801.5824 13.796 2.1289 3.9911 6.1076 7.1052 10.498 8.217 2.0937.5303 5.7642.5201 7.8278-.0218 4.7583-1.2498 9.1121-4.9583 10.9597-9.3358 1.9058-4.5157 1.681-9.6933-.6116-14.0869-1.2453-2.3865-4.2167-5.3553-6.6054-6.5995-3.5624-1.8555-7.9829-2.377-11.7622-1.3877zm76.3211 0c-4.145 1.0847-8.232 4.2995-10.157 7.9872-2.292 4.3936-2.517 9.5712-.611 14.0869 1.848 4.3775 6.201 8.086 10.96 9.3358 2.063.5419 5.734.5521 7.827.0218 7.179-1.8179 12.255-8.2363 12.278-15.524.015-4.9295-1.647-8.7903-5.225-12.1344-3.922-3.665-9.833-5.1449-15.072-3.7733zm-48.8544 27.4844c-3.7136.8432-6.1654 2.2111-8.9508 4.9938-2.3183 2.3164-3.5695 4.307-4.5969 7.3134l-.6402 1.8738-.0648 20.5291c-.0636 20.18-.0565 20.544.4259 21.326.2698.439.8493 1.015 1.2879 1.283.7825.476 1.285.485 27.3383.485 26.053 0 26.556-.009 27.338-.485.439-.268 1.018-.844 1.288-1.283.483-.782.49-1.146.426-21.326l-.065-20.5291-.64-1.8738c-1.027-3.0064-2.279-4.997-4.597-7.3134-2.319-2.3174-4.3136-3.5682-7.3197-4.5913l-1.8755-.6381-13.9433-.0489c-11.0325-.0384-14.2497.021-15.4109.2845zm-32.1292 9.1894c-7.0159.9094-12.7791 5.8829-14.998 12.9431-.5707 1.8156-.5734 1.8846-.5734 14.5336v12.708l.567 1.403c1.1483 2.841 3.5076 5.197 6.3459 6.338 1.3665.55 1.6507.567 10.6253.642l9.2211.076-.2847-.808c-.3797-1.078-.5539-38.1059-.1957-41.6221.137-1.3442.4302-3.1039.6519-3.9104.2218-.8065.4577-1.7137.5244-2.0163l.1214-.5499-5.2265.0311c-2.8748.0171-5.9252.1214-6.7787.2319zm81.9736.2869c.067.3026.302 1.2098.524 2.0163s.515 2.5662.652 3.9104c.358 3.5162.184 40.5441-.196 41.6221l-.284.808 9.221-.076c8.974-.075 9.259-.092 10.625-.642 2.838-1.141 5.198-3.497 6.346-6.338l.567-1.403v-12.708c0-12.649-.003-12.718-.573-14.5336-1.845-5.8675-5.994-10.2232-11.533-12.1053-2.48-.8427-4.966-1.1008-10.604-1.1008h-4.867z" fill="#219653" fill-rule="evenodd"/></svg>