<svg fill="none" height="100" viewBox="0 0 100 100" width="100" xmlns="http://www.w3.org/2000/svg"><path d="m0 50c0-41.175 8.825-50 50-50s50 8.825 50 50-8.825 50-50 50-50-8.825-50-50z" fill="#f9ffdf"/><circle cx="72.1185" cy="32.4333" fill="#c0d271" r="9.43333"/><path clip-rule="evenodd" d="m72.3806 44.487c.264 0 .5261-.0083.7861-.0247v22.0358c0 5.7888-4.6928 10.4815-10.4815 10.4815h-26.2037c-5.7888 0-10.4815-4.6927-10.4815-10.4815v-26.2037c0-5.7887 4.6927-10.4814 10.4815-10.4814h23.8089c-.148.7633-.2256 1.5517-.2256 2.3583 0 6.8018 5.514 12.3157 12.3158 12.3157zm-9.8819 3.0327c.3723-.6205.1711-1.4253-.4494-1.7976s-1.4253-.1711-1.7975.4494l-6.8587 11.4311-6.692-8.9228c-.2475-.3299-.6358-.524-1.0482-.524s-.8007.1941-1.0481.524l-7.8612 10.4816c-.4342.5789-.3168 1.4001.262 1.8343.5789.4341 1.4001.3168 1.8343-.2621l6.813-9.084 6.813 9.084c.2618.349.68.5448 1.1157.5224.4356-.0225.8315-.2603 1.056-.6344z" fill="#54ab68" fill-rule="evenodd"/></svg>