<svg fill="none" height="88" viewBox="0 0 399 88" width="399" xmlns="http://www.w3.org/2000/svg"><path d="m114.455 59.1091c3.096 0 5.72-.3769 8.478-1.1735.431-.1245.706-.5276.662-.9716l-.262-2.6361c-.028-.282-.168-.5136-.405-.6721-.237-.1584-.505-.1985-.779-.1175-2.236.6634-4.525.9951-7.188.9951-7.248 0-9.664-2.455-9.664-9.4841 0-7.0299 2.415-9.4292 9.664-9.4292 2.663 0 4.952.3317 7.188.995.274.081.542.041.779-.1166.237-.1585.377-.39.405-.6721l.262-2.6361c.044-.444-.231-.8471-.662-.9716-2.758-.7966-5.382-1.1735-8.478-1.1735-10.17 0-14.271 4.0168-14.271 14.0598s4.102 14.0041 14.271 14.0041zm15.982-.6694h3.209c.508 0 .924-.4127.924-.9176v-18.889c3.483-2.0641 6.516-2.9007 10.226-2.9007h.199c.509 0 .924-.4127.924-.9176v-2.8512c0-.5058-.415-.9175-.924-.9175h-.255c-3.484 0-6.63 1.0046-10.789 3.5711l-.618-2.9008h-2.896c-.509 0-.924.4118-.924.9176v24.8889c0 .505.415.9176.924.9176zm33.18.6694c10.788 0 14.777-3.8497 14.777-14.0041 0-10.2101-3.989-14.0598-14.777-14.0598-10.787 0-14.776 3.8497-14.776 14.0598 0 10.1544 3.989 14.0041 14.776 14.0041zm0-4.5191c-7.248 0-9.664-2.3436-9.664-9.485 0-7.1971 2.416-9.5398 9.664-9.5398s9.664 2.3427 9.664 9.5398c0 7.1414-2.416 9.485-9.664 9.485zm27.741 3.8497h4.302c.4 0 .742-.2412.873-.6173l6.864-19.6907 6.809 19.689c.131.3769.472.6198.874.6198h4.3c.401 0 .742-.242.874-.6189l8.634-24.889c.1-.289.057-.5824-.121-.8314-.179-.249-.445-.3848-.752-.3848h-3.266c-.403 0-.747.2446-.876.6242l-6.699 19.7395-6.865-19.7456c-.13-.377-.471-.6181-.873-.6181h-3.964c-.401 0-.742.2411-.873.6181l-6.865 19.7456-6.699-19.7395c-.128-.3804-.471-.6242-.875-.6242h-3.434c-.308 0-.573.1358-.752.3848s-.222.5424-.121.8314l8.634 24.889c.131.3769.473.6189.873.6189zm49.065.6694c4.159 0 7.642-.9489 11.519-3.1802l.506 2.5108h2.896c.509 0 .925-.4127.925-.9176v-37.5542c0-.5058-.416-.9175-.925-.9175h-3.208c-.509 0-.924.4117-.924.9175v13.8666c-3.596-1.9527-6.911-2.7893-10.789-2.7893-8.596 0-12.079 4.0168-12.079 14.0041 0 10.043 3.483 14.0598 12.079 14.0598zm1.012-4.5191c-5.899 0-7.978-2.5108-7.978-9.485 0-7.0299 2.079-9.5398 7.978-9.5398 3.483 0 6.237.8924 9.777 3.1245v12.7766c-3.54 2.2322-6.294 3.1245-9.777 3.1245zm22.837 15.2873h1.379c5.282 0 7.136-1.2832 9.215-6.3604l12.517-30.5382c.119-.2916.087-.5963-.09-.8575s-.45-.4057-.767-.4057h-3.337c-.386 0-.715.2212-.858.5772l-7.747 19.2842-8.023-19.2946c-.146-.3509-.472-.5668-.855-.5668h-3.493c-.319 0-.594.1463-.771.4109-.176.2647-.205.572-.081.8645l10.582 24.8359-1.517 3.6825c-1.349 3.236-2.191 3.9612-4.945 3.9612h-1.211c-.509 0-.924.4126-.924.9175v2.5726c0 .5058.415.9176.924.9176zm36.653-11.4376h2.439c.376 0 .698-.2098.848-.5529l10.772-24.666c.128-.2926.101-.6025-.075-.8689s-.451-.4144-.772-.4144h-1.468c-.378 0-.7.2107-.849.5546l-9.648 22.2641-9.648-22.2641c-.149-.3439-.472-.5546-.849-.5546h-1.524c-.321 0-.596.148-.772.4144s-.203.5763-.075.8689l10.773 24.666c.15.3431.471.5529.848.5529zm33.218.6694c3.982 0 6.743-.437 10.013-1.5365.422-.1419.678-.5511.62-.989l-.143-1.0726c-.037-.2838-.187-.5127-.433-.6625-.246-.1497-.519-.1776-.791-.0818-2.956 1.0412-5.544 1.4417-9.21 1.4417-8.878 0-11.968-2.3436-12.248-9.9316h23.56c.482 0 .881-.3648.921-.8418.048-.5781.072-1.2354.072-1.8918 0-8.7598-3.877-12.2743-13.598-12.2743-10.226 0-14.215 3.8497-14.215 14.0041 0 10.3216 4.159 13.8361 15.452 13.8361zm-12.136-15.6216c.394-6.9742 3.315-9.3169 10.899-9.3169 7.586 0 10.339 2.3993 10.452 9.3169zm42.252 15.6216c9.495 0 12.698-2.1198 12.698-8.0337 0-5.0214-2.248-6.8061-9.721-7.4756l-3.708-.3352c-6.349-.558-7.754-1.4504-7.754-4.352 0-3.5711 2.248-4.742 8.989-4.742 3.866 0 6.7.4004 9.544 1.2423.266.0783.527.0426.761-.1054s.377-.3674.418-.6398l.176-1.1745c.068-.4544-.206-.8818-.65-1.0133-2.969-.8793-6.074-1.211-9.798-1.211-9.271 0-12.642 2.0642-12.642 7.8108 0 4.7987 2.248 6.3605 9.889 7.1414l3.707.3909c6.181.6695 7.586 1.4504 7.586 4.5749 0 3.8497-2.248 5.0215-9.102 5.0215-4.668 0-7.87-.5459-11.136-1.5967-.27-.087-.539-.0531-.779.0975-.24.1515-.386.377-.422.6573l-.151 1.157c-.057.4414.203.8514.629.9907 3.416 1.1092 6.902 1.5949 11.467 1.5949zm29.328-.6694h3.571c.509 0 .924-.4127.924-.9176v-1.0099c0-.5058-.415-.9176-.924-.9176h-2.953c-4.157 0-5.281-1.1161-5.281-5.4115v-15.4545h8.177c.509 0 .924-.4127.924-.9176v-.9541c0-.5059-.415-.9176-.924-.9176h-8.177v-7.0613c0-.5049-.416-.9176-.924-.9176h-1.106c-.497 0-.905.3918-.923.8854l-.25 7.0926h-5.592c-.51 0-.925.4118-.925.9176v.9541c0 .505.415.9176.925.9176h5.537v15.6774c0 6.0253 2.136 8.0337 7.922 8.0337z" fill="#214d52"/><g clip-rule="evenodd" fill-rule="evenodd"><path d="m60.8635 84.1641c-.0947-1.157-.3349-3.2943-.5935-5.5978-.4603-4.1074-.9811-8.7441-.8575-9.5564l.0956-.6233.6163.1436c.939.2194 4.2109 2.2583 6.0301 3.3927l.96.5937 1.7579 1.0743c1.4869.9133 2.9791 1.8291 4.4967 2.6683 1.351-.9828 3.0589-2.7162 4.5695-4.5383 1.4667-1.7681 2.738-3.6068 3.3026-4.9057-1.3493-1.11-6.5035-4.1196-10.0683-6.2011-1.3747-.8027-2.5162-1.4696-3.1273-1.8457-2.8835-1.7768-5.9897-2.3758-8.9031-2.038-2.0436.2368-3.9961.9385-5.711 2.018-1.7157 1.0813-3.1948 2.5404-4.2898 4.2937-1.5728 2.5177-2.3636 5.6509-1.9516 9.155.071.6042.1903 1.8552.3349 3.3761.3832 4.0221.9521 9.9934 1.3888 11.6727 1.3799.0375 3.5954-.336 5.8389-.9089 2.3234-.5928 4.6554-1.3955 6.1082-2.1747z" fill="#c0d271"/><path d="m42.7714 73.6958c.0421-2.677-.1481-5.1381-1.0056-7.3555-.8486-2.193-2.3689-4.1761-4.9973-5.9347-1.9042-1.2745-4.3187-2.139-6.8718-2.3123-2.2716-.1541-4.6519.2377-6.8779 1.3721-1.2169.6207-3.5928 2.2304-6.1423 4.056-3.2491 2.3271-6.7622 4.9954-8.53666 6.4292.78643 1.4913 2.28646 3.1689 3.91716 4.7325 1.6606 1.5914 3.4464 3.054 4.7738 4.0952l13.385-9.5947.0306 1.0952c.0316 1.1161-.0456 3.182-.1315 5.476-.1402 3.7696-.3051 8.1677-.0535 9.7818l1.2354.3456c3.1491.8923 7.5608 2.1425 10.8266 1.6976l.4489-13.884z" fill="#9c9"/><path d="m20.9198 55.5835c1.9296-1.5365 3.2439-3.4884 4.0154-5.5847.8592-2.3358 1.0485-4.8535.6707-7.1797-1.1959-7.3529-6.7114-9.6773-12.8703-12.2734-1.0819-.4562-2.184-.9202-3.32546-1.4391l-.69699-.3186c-1.60967-.7391-4.17058-1.9153-5.46462-2.3001-.74434 1.2136-1.59915 3.5851-2.24705 5.9696-.645266 2.3758-1.0792443 4.729-.9898185 5.9173l15.0033385 6.6295-14.493962 8.0163c.450636 1.9457.957382 3.9524 1.651752 5.9234.68209 1.9353 1.54741 3.8401 2.72398 5.6239 1.30982-.7208 2.90722-1.5444 4.60806-2.4202 4.17587-2.1503 8.97587-4.6228 11.41407-6.5642z" fill="#7cb8a6"/><path d="m26.2106 30.9192c2.468.1419 5.1122-.4666 7.8897-2.2165 7.3776-4.6497 6.5482-11.3715 5.7136-18.1254-.1114-.9115-.2245-1.82387-.3271-2.83983-.0464-.45619-.0876-.92456-.1332-1.453-.1666-1.93878-.4059-4.69938-.733-5.992188-1.294-.073129-3.9443.358678-6.514 1.044698-2.226.5946-4.3591 1.3729-5.4375 2.16512.0491 1.43646.3814 3.85405.7225 6.33956.4971 3.61464 1.0126 7.37384.725 8.75104l-.1666.7948-13.7777-8.1399c-1.3238.989-3.1518 2.8747-4.74393 4.803-1.46325 1.7725-2.71171 3.5589-3.15884 4.675 1.50534 1.1239 7.55827 4.6733 10.98887 6.6835l2.0533 1.2083c2.1067 1.2597 4.4248 2.1591 6.8998 2.3001z" fill="#54ab68"/><path d="m45.6754 21.0778c.8074 2.2565 2.3198 4.3285 5.0885 6.1472 8.8926 5.8441 16.6034-.2725 24.5535-6.5807 1.2765-1.0108 2.5583-2.0268 3.8374-2.9922-2.3566-3.6625-5.3489-6.0889-8.2622-8.44986l-.3893-.31515-13.2718 9.52061-.1096-.9924c-.2034-1.8404-.0745-5.1051.0473-8.22699.121-3.06704.2359-5.99306.0307-7.14048-1.7105-.63378-4.1364-1.271916-6.5684-1.663676-1.9244-.309055-3.8462-.4648886-5.4094-.342137l-.4375 13.611483c-.0412 2.6335.0719 5.139.8899 7.4252z" fill="#41747a"/></g></svg>