<svg fill="none" height="200" viewBox="0 0 200 200" width="200" xmlns="http://www.w3.org/2000/svg"><g clip-rule="evenodd" fill-rule="evenodd"><path d="m20 99.5v80.5h80.5 80.5v-80.5-80.5h-80.5-80.5zm150.267 0v69.767h-69.767-69.7667v-69.767-69.7667h69.7667 69.767zm-107.3337-10.7333v5.3666h-8.05-8.05v5.3667 5.367h8.05 8.05v5.366 5.367h16.1 16.1v-5.367-5.366h29.5167 29.517v-5.367-5.3667h-29.517-29.5167v-5.3666-5.3667h-16.1-16.1zm21.4667 10.7333v5.367h-5.3667-5.3666v-5.367-5.3667h5.3666 5.3667zm21.467 32.2v5.367h-29.517-29.5167v5.366 5.367h29.5167 29.517v5.367 5.366h16.1 16.1v-5.366-5.367h8.05 8.05v-5.367-5.366h-8.05-8.05v-5.367-5.367h-16.1-16.1zm21.466 10.733v5.367h-5.366-5.367v-5.367-5.366h5.367 5.366z" fill="#293737"/><path d="m105.867 45.8333v5.3667h-29.5168-29.5167v5.3667 5.3666h29.5167 29.5168v5.3667 5.3667h16.1 16.1v-5.3667-5.3667h8.05 8.05v-5.3666-5.3667h-8.05-8.05v-5.3667-5.3666h-16.1-16.1zm21.466 10.7334v5.3666h-5.366-5.367v-5.3666-5.3667h5.367 5.366z" fill="#219653"/></g></svg>