<svg fill="none" height="50" viewBox="0 0 50 50" width="50" xmlns="http://www.w3.org/2000/svg"><path clip-rule="evenodd" d="m42.5 5h2.5c1.25 0 2.5 1.25 2.5 2.5v12c-3.5-2.75-7.75-4.5-12.5-4.5-11 0-20 9-20 20 0 3.5 1 7 2.75 10h-15.25c-1.25 0-2.5-1-2.5-2.5v-35c0-1.5 1.25-2.5 2.5-2.5h5v-2.5c0-1.5 1-2.5 2.5-2.5s2.5 1 2.5 2.5v2.5h25v-2.5c0-1.5 1-2.5 2.5-2.5s2.5 1 2.5 2.5zm-34.66663 5.8333c-1.10457 0-2 .8954-2 2v4.3333c0 1.1046.89544 2 2 2h4.33333c1.1046 0 2-.8954 2-2v-4.3333c0-1.1046-.8954-2-2-2z" fill="#c0d271" fill-rule="evenodd"/><g fill="#54ab68"><path d="m29.0909 36.5757h-4.0727c-.5623 0-1.0182.4558-1.0182 1.0182v6.7878c0 .5624.4559 1.0182 1.0182 1.0182h4.0727c.5623 0 1.0182-.4558 1.0182-1.0182v-6.7878c0-.5624-.4559-1.0182-1.0182-1.0182z"/><path d="m33.425 45.3999h4.0727c.5623 0 1.0182-.4559 1.0182-1.0182v-13.5757c0-.5624-.4559-1.0182-1.0182-1.0182h-4.0727c-.5624 0-1.0182.4558-1.0182 1.0182v13.5757c0 .5623.4558 1.0182 1.0182 1.0182z"/><path d="m45.9045 23h-4.0727c-.5623 0-1.0182.4559-1.0182 1.0182v20.3636c0 .5623.4559 1.0182 1.0182 1.0182h4.0727c.5623 0 1.0182-.4559 1.0182-1.0182v-20.3636c0-.5623-.4559-1.0182-1.0182-1.0182z"/></g></svg>