<svg fill="none" height="100" viewBox="0 0 100 100" width="100" xmlns="http://www.w3.org/2000/svg"><path d="m0 50c0-41.175 8.825-50 50-50s50 8.825 50 50-8.825 50-50 50-50-8.825-50-50z" fill="#f9ffdf"/><circle cx="72.1185" cy="32.4333" fill="#c0d271" r="9.43333"/><g fill="#54ab68"><path d="m49.5833 57.6486c-2.3487 0-4.2523-1.9037-4.2523-4.2523 0-2.3487 1.9036-4.2523 4.2523-4.2523 2.3486 0 4.2523 1.9036 4.2523 4.2523 0 2.3486-1.9037 4.2523-4.2523 4.2523z"/><path clip-rule="evenodd" d="m72.3806 44.487c.264 0 .5261-.0083.7861-.0247v22.0358c0 5.7888-4.6928 10.4815-10.4815 10.4815h-26.2037c-5.7888 0-10.4815-4.6927-10.4815-10.4815v-26.2037c0-5.7887 4.6927-10.4814 10.4815-10.4814h23.8089c-.148.7633-.2256 1.5517-.2256 2.3583 0 6.8018 5.514 12.3157 12.3158 12.3157zm-31.0102-1.6175 3.3938 3.3937c1.375-.9308 3.0335-1.4744 4.8191-1.4744 1.7855 0 3.444.5436 4.8191 1.4744l3.3937-3.3937c.639-.6383 1.6749-.6383 2.3139 0 .3188.3196.4789.7383.4789 1.157s-.1601.8374-.4789 1.1569l-3.3937 3.3937c.9308 1.375 1.4744 3.0336 1.4744 4.8192 0 1.7855-.5436 3.4441-1.4743 4.8191l3.3936 3.3936c.6383.6391.6383 1.6749 0 2.3139-.3195.3189-.7383.479-1.157.479s-.8374-.1601-1.1569-.479l-3.3937-3.3936c-1.375.9308-3.0335 1.4744-4.8191 1.4744s-3.4442-.5436-4.8192-1.4744l-3.3937 3.3936c-.639.6384-1.6749.6384-2.3139 0-.6383-.639-.6383-1.6749 0-2.3139l3.3937-3.3936c-.9308-1.3751-1.4744-3.0336-1.4744-4.8191 0-1.7856.5437-3.4441 1.4744-4.8192l-3.3937-3.3937c-.6383-.6391-.6383-1.6749 0-2.3139.6391-.6383 1.6749-.6383 2.3139 0z" fill-rule="evenodd"/></g></svg>