<svg fill="none" height="200" viewBox="0 0 200 200" width="200" xmlns="http://www.w3.org/2000/svg"><path clip-rule="evenodd" d="m99.4998 72.3729-18.8831-19.5761c-11.0531-11.4585-29.4673-11.4585-40.5207 0-10.4332 10.8161-10.4332 27.8981 0 38.7143l59.4038 61.5839 59.4042-61.5839c10.433-10.8162 10.433-27.8982 0-38.7143-11.053-11.4585-29.468-11.4585-40.521 0zm-4.4118 85.2961c.0016-.002.0036-.005.0057-.006zm4.4118-105.8047 8.5882-8.9032c.436-.4525.88-.8932 1.332-1.3217 16.784-15.9479 43.545-15.5074 59.779 1.3217 15.735 16.3118 15.735 42.0738 0 58.3859l-63.816 66.158c-3.21 3.327-8.5564 3.327-11.7658 0l-63.8161-66.158c-15.7348-16.3121-15.7348-42.0741-.0001-58.3859 16.2332-16.8291 42.9948-17.2696 59.7792-1.3217.4513.4285.8954.8692 1.3316 1.3217z" fill="#293737" fill-rule="evenodd"/><path d="m130.007 99.4593-31.0068 32.5407-31.007-32.5407c-5.3243-5.5872-5.3243-14.2815 0-19.8687 5.8326-6.1208 15.7081-6.1208 21.5407 0l9.4663 9.9343 9.4658-9.9343c5.833-6.1208 15.709-6.1208 21.541 0 5.324 5.5872 5.324 14.2815 0 19.8687z" fill="#219653"/></svg>