<svg fill="none" height="50" viewBox="0 0 50 50" width="50" xmlns="http://www.w3.org/2000/svg"><g clip-rule="evenodd" fill-rule="evenodd"><path d="m42.5 5h2.5c1.25 0 2.5 1.25 2.5 2.5v12c-3.5-2.75-7.75-4.5-12.5-4.5-11 0-20 9-20 20 0 3.5 1 7 2.75 10h-15.25c-1.25 0-2.5-1-2.5-2.5v-35c0-1.5 1.25-2.5 2.5-2.5h5v-2.5c0-1.5 1-2.5 2.5-2.5s2.5 1 2.5 2.5v2.5h25v-2.5c0-1.5 1-2.5 2.5-2.5s2.5 1 2.5 2.5zm-34.66663 5.8333c-1.10457 0-2 .8954-2 2v4.3333c0 1.1046.89544 2 2 2h4.33333c1.1046 0 2-.8954 2-2v-4.3333c0-1.1046-.8954-2-2-2z" fill="#c0d271"/><path d="m35 50c8.2843 0 15-6.7157 15-15s-6.7157-15-15-15-15 6.7157-15 15 6.7157 15 15 15zm-3.5031-9.8149-2.4669 2.4668c-.4645.464-1.2175.464-1.682 0-.464-.4645-.464-1.2175 0-1.682l2.4669-2.4669c-.6766-.9995-1.0717-2.2051-1.0717-3.503s.3951-2.5035 1.0717-3.5031l-2.4669-2.4669c-.464-.4645-.464-1.2175 0-1.682.4646-.464 1.2175-.464 1.682 0l2.4669 2.4669c.9995-.6765 2.2051-1.0717 3.5031-1.0717 1.2979 0 2.5035.3952 3.503 1.0717l2.4669-2.4668c.4645-.4641 1.2175-.4641 1.682 0 .2317.2323.3481.5366.3481.841 0 .3043-.1164.6087-.3481.841l-2.4669 2.4668c.6766.9995 1.0718 2.2052 1.0718 3.5031 0 1.298-.3952 2.5036-1.0718 3.5031l2.4669 2.4668c.464.4646.464 1.2175 0 1.682-.2323.2318-.5367.3482-.841.3482-.3044 0-.6088-.1164-.841-.3482l-2.4669-2.4668c-.9995.6766-2.2051 1.0717-3.503 1.0717-1.298 0-2.5036-.3952-3.5031-1.0717zm.412-5.1851c0 1.7073 1.3838 3.0911 3.0911 3.0911 1.7072 0 3.091-1.3838 3.091-3.0911 0-1.7072-1.3838-3.091-3.091-3.091-1.7073 0-3.0911 1.3838-3.0911 3.091z" fill="#54ab68"/></g></svg>